<?xml version="1.0" encoding="UTF-8"?>
<svg xmlns="http://www.w3.org/2000/svg" viewBox="0 0 486.8 200">
    <defs>
        <style></style>
    </defs>
    <g id="a" />
    <g id="b">
        <g id="c">
            <g id="d">
                <g id="e">
                    <g id="f">
                        <path class="g" d="M95.5,175c43.5,0,74.5-35,74.5-75S138.5,30,100,30c-4,0-9,.5-11.5,1,4.5-1.5,12-2,16-2,51,0,81.5,41,81.5,85,0,51.5-38.5,86-86,86C45,200,0,155,0,100c0-19.5,6-45,26.5-67.5-13,18-16.5,36-16.5,54,0,46.5,31.5,88.5,85.5,88.5Z" />
                        <path class="g" d="M104.5,25c-43.5,0-74.5,35-74.5,75s31.5,70,70,70c4,0,9-.5,11.5-1-4.5,1.5-12,2-16,2-51,0-81.5-41-81.5-85C14,34.5,52.5,0,100,0c55,0,100,45,100,100,0,19.5-6,45-26.5,67.5,13-18,16.5-36,16.5-54,0-46.5-31.5-88.5-85.5-88.5Z" />
                    </g>
                    <path class="g" d="M245.1,124.8c-10,0-15.5-6-16-15.5h9.5c0,5,2.5,7.5,6,7.5,2.5,0,5-1,5-4.5s-2.5-5.5-7-8l-3.5-2c-5-2.5-9-6-9-13,0-9,6.5-13.5,15-13.5,9,0,14.5,5.5,14.5,14.5h-9.5c-.5-5-2-7.5-5.5-7.5-3,0-4.5,2-4.5,4.5,0,3.5,3,5.5,6.5,7.5l3,2c3.5,2,10,5.5,10,14.5,.5,9.5-7,13.5-14.5,13.5Zm34-.5c8.5,0,15.5-6,15.5-18s-7-18-15.5-18-15.5,6.5-15.5,18c0,12.1,7,18.5,15.5,18Zm0-7.9c-3.5,0-6-3.5-6-10s2.5-10,6-10,6,3.5,6,10-2,10-6,10Zm20.5,7.9h9.5v-49.4h-9.5v49.4Zm44.4-.5v-34h-9.5v21c0,4-2,6-5,6s-5-2-5-6v-21.5h-9.5v23.5c0,7.5,4,12,10.5,12,4.5,0,7-2,8.5-4.5h.5l1,3.5h8.5Zm38.5-38.9c3,0,5.5-2.5,5.5-5.5s-2.5-5.5-5.5-5.5c-3.5,0-6,2.5-6,5.5s3,5.5,6,5.5Zm-5,38.9h9.5v-34.5h-9.5v34.5Zm30.4,.5c8.5,0,15.5-6,15.5-18s-7-18-15.5-18-15.5,6.5-15.5,18c0,12.1,7,18,15.5,18Zm0-7.9c-3.5,0-6-3.5-6-10s2.5-10,6-10,6,3.5,6,10-2.5,10-6,10Zm66.4,7.4c6.5,0,12.5-3,12.5-10s-5-9.5-9.5-11l-2.5-1c-2.5-1-4.5-2-4.5-4s1-3,3-3c2.5,0,4,1.5,4,4h9c0-6-4.5-10.5-12.5-10.5-7,0-12.5,3.5-12.5,10.5,0,6.5,5,8.5,9,10l2.5,1c3,1,5,2,5,4.5,0,2-1.5,3-3.5,3-2.5,0-4-1-4.5-4.5h-9c.6,7.5,5,11.5,13.5,11Zm-109.8,.5c2,0,4.5,0,6-.5v-7c-1,.5-2,.5-3,.5-3,0-4-2-4-4v-16.5h8.5v-7.5h-8.5v-9h-8.5v4c0,3.5-1.5,5-5,5h-1.5v7.5h6v18c0,5.5,3,10,10,9.5Zm63.4-34.9v34.5h9.5v-21c0-4.5,2-6.5,5-6.5s5,2,5,6v21.5h9.5v-23.5c0-7.5-4-12-10.5-12-4.5,0-7,2-8.5,4.5h-.5l-1-3.5h-8.5ZM56.6,52.5v50.1c0,14.2,8,20.8,21.8,20.8,16.6,0,21.8-9,21.8-20.8V52.5h-16.2v51.8c0,2.9-1.3,6.6-5.5,6.6-4.6,0-5.6-2.9-5.6-6.2V52.5h-16.3m50,94.3V77.5h16.2v55.4h19.8v13.9h-36" />
                </g>
            </g>
        </g>
    </g>
</svg>